# xmcd
#
# Track frame offsets: 
#        150
#        13561
#        25164
#        46466
#        57084
#        69958
#        90239
#        107034
#        119917
#        133587
#        147433
#        163713
#
# Disc length: 2309 seconds
#
# Revision: 0
# Processed by: cddbd v1.5.2PL0 Copyright (c) Steve Scherf et al.
# Submitted via: ExactAudioCopy v1.0b3
#
DISCID=a009030c
DTITLE=The Railsplitters - The Railsplitters
DYEAR=2013
DGENRE=Bluegrass
TTITLE0=Jackson Town
TTITLE1=Boarding Pass (That's The Way It Is)
TTITLE2=My World
TTITLE3=Evil Apple
TTITLE4=Lonesome Feeling
TTITLE5=Where You Are
TTITLE6=Room At The Top Of The Stairs
TTITLE7=Blue Moon
TTITLE8=Longs Peak
TTITLE9=No Stranger To The Blues
TTITLE10=Spray
TTITLE11=Family Waltz
EXTD=
EXTT0=
EXTT1=
EXTT2=
EXTT3=
EXTT4=
EXTT5=
EXTT6=
EXTT7=
EXTT8=
EXTT9=
EXTT10=
EXTT11=
PLAYORDER=
